# xmcd CD database file
#
# Track frame offsets:
#	150
#	14825
#	26475
#	38850
#	53640
#	65212
#	84300
#	97800
#	110062
#	124065
#	145890
#	157605
#	169215
#	179625
#	194860
#	209050
#
# Disc length: 2973 seconds
#
# Revision: 0
# Processed by: cddbd v1.5.1PL0 Copyright (c) Steve Scherf et al.
# Submitted via: CDex 1.51
#
DISCID=eb0b9b10
DTITLE=Two Tons Of Steel - Ten Dollar Cover
DYEAR=2000
DGENRE=Country
TTITLE0=Two Tons of Steel - Heard the News Rock'n tonight
TTITLE1=Two Tons of Steel -  Who's my baby
TTITLE2=Two Tons of Steel -  Need that boogie
TTITLE3=Two Tons of Steel -  Seven lonely days
TTITLE4=Two Tons of Steel -  I got to let you know
TTITLE5=Two Tons of Steel -  Won't you be mine
TTITLE6=Two Tons of Steel - My gal is red hot
TTITLE7=Two Tons of Steel - Tears I cried
TTITLE8=Two Tons of Steel - Havana moon
TTITLE9=Two Tons of Steel - Nothing can hold me
TTITLE10=Two Tons of Steel - One way ticket
TTITLE11=Two Tons of Steel - Blue moon
TTITLE12=Two Tons of Steel - Gave you all my money
TTITLE13=Two Tons of Steel - Kiss you one time
TTITLE14=Two Tons of Steel - Two tons of steel
TTITLE15=Two Tons of Steel - My baby
EXTD=YEAR: 2000
EXTT0=
EXTT1=
EXTT2=
EXTT3=
EXTT4=
EXTT5=
EXTT6=
EXTT7=
EXTT8=
EXTT9=
EXTT10=
EXTT11=
EXTT12=
EXTT13=
EXTT14=
EXTT15=
PLAYORDER=
